<svg width="48" height="48" viewBox="0 0 48 48" fill="none" xmlns="http://www.w3.org/2000/svg">
<g clip-path="url(#clip0_1_265)">
<path d="M46.967 22.253C50.602 35.375 44.314 48 33.295 48C27.198 48 24.595 44.496 17.898 36.337C11.2 28.178 1.65 39.522 0 22.253C1.386 6.34004 18.652 -8.06396 26.668 5.22604C33.966 17.326 43.333 9.13104 46.968 22.253H46.967Z" fill="#FFDD76"/>
<path d="M23.493 15.515H23.494C23.5535 15.4961 23.6175 15.4961 23.677 15.515L34.313 18.903L34.35 18.9151L34.389 18.921C34.4653 18.9333 34.5345 18.9727 34.584 19.032C34.6393 19.0984 34.67 19.1817 34.671 19.268V19.282L34.672 19.297V28.377L34.915 28.523C35.262 28.733 35.5 29.119 35.5 29.571C35.5 29.698 35.435 29.95 35.281 30.311C35.136 30.654 34.939 31.035 34.736 31.396C34.601 31.638 34.466 31.867 34.345 32.065C34.225 31.867 34.089 31.638 33.953 31.397C33.7525 31.0448 33.5706 30.6823 33.408 30.311C33.255 29.95 33.19 29.698 33.19 29.571C33.19 29.119 33.428 28.732 33.775 28.523L34.017 28.377V19.762L33.365 19.969L23.678 23.056C23.6182 23.0752 23.5538 23.0752 23.494 23.056L12.735 19.628C12.6678 19.6056 12.6096 19.5621 12.569 19.504C12.5238 19.4402 12.4995 19.3638 12.4995 19.2855C12.4995 19.2073 12.5238 19.1309 12.569 19.067C12.6096 19.009 12.6678 18.9655 12.735 18.943L23.493 15.515ZM17.464 28.245V23.979L22.702 25.648C23.2766 25.8323 23.8944 25.8323 24.469 25.648L29.707 23.979V28.245L29.582 28.257C29.2 28.3 28.659 28.384 28.012 28.552C26.796 28.866 25.202 29.477 23.586 30.659C22.2567 29.6834 20.7545 28.9685 19.159 28.552C18.6026 28.4067 18.036 28.3041 17.464 28.245Z" fill="#63522B" stroke="#63522B"/>
</g>
<defs>
<clipPath id="clip0_1_265">
<rect width="48" height="48" fill="white"/>
</clipPath>
</defs>
</svg>
