<svg width="48" height="48" viewBox="0 0 48 48" fill="none" xmlns="http://www.w3.org/2000/svg">
<g clip-path="url(#clip0_1_284)">
<path d="M46.967 25.747C50.602 12.625 44.314 0 33.295 0C27.198 0 24.595 3.504 17.898 11.663C11.2 19.822 1.65 8.478 0 25.747C1.386 41.66 18.652 56.064 26.668 42.774C33.966 30.674 43.333 38.868 46.968 25.747H46.967Z" fill="#FFDD76"/>
<path d="M21.65 14.559H22.175L22.374 14.074C22.704 13.268 23.284 12.781 24 12.781C24.716 12.781 25.296 13.268 25.626 14.074L25.825 14.559H32C32.257 14.559 32.495 14.639 32.692 14.774H28.674V18.33H19.327V14.774H15.308C15.505 14.638 15.743 14.559 16 14.559H19.455H21.65ZM32.963 15.556V15.031C33.123 15.237 33.219 15.496 33.219 15.778V34C33.219 34.281 33.123 34.54 32.963 34.747V34.222V15.556ZM32.182 35.004H32.692C32.4886 35.1444 32.2472 35.2195 32 35.219H16C15.7529 35.2191 15.5116 35.1441 15.308 35.004H15.818H32.182ZM15.037 34.222V34.747C14.8704 34.5336 14.78 34.2707 14.78 34V15.778C14.78 15.496 14.876 15.238 15.036 15.031V15.556L15.037 34.222ZM28.417 15.556V14.774H25.69V14.667C25.69 13.717 24.928 12.997 24 12.997C23.072 12.997 22.31 13.717 22.31 14.667V14.774H19.582V18.115H28.418V17.333L28.417 15.556ZM22.545 29.079L23.091 29.613L23.637 29.079L28.812 24.019L28.98 24.184L23.09 29.942L19.93 26.851L20.097 26.686L22.545 29.079Z" fill="#63522B" stroke="#63522B" stroke-width="1.563"/>
</g>
<defs>
<clipPath id="clip0_1_284">
<rect width="48" height="48" fill="white"/>
</clipPath>
</defs>
</svg>
