<svg width="48" height="48" viewBox="0 0 48 48" fill="none" xmlns="http://www.w3.org/2000/svg">
<g clip-path="url(#clip0_1_122)">
<path d="M46.967 25.747C50.602 12.625 44.314 0 33.295 0C27.198 0 24.595 3.504 17.898 11.663C11.2 19.822 1.65 8.478 0 25.747C1.386 41.66 18.652 56.064 26.668 42.774C33.966 30.674 43.333 38.868 46.968 25.747H46.967Z" fill="#E6F1F9"/>
<path d="M27.923 19C27.368 19 27 19.368 27 19.923V29.5C27 29.962 27.368 30.423 27.923 30.423C28.107 28.855 29.338 27.5 31.001 27.5C32.663 27.5 33.817 28.838 34.001 30.5H35.001C35.556 30.5 36.001 30.094 36.001 29.538V24.923C36.001 24.093 35.251 23.077 35.251 23.077L33.231 19.962C32.769 19.406 32.491 19.038 31.846 19.038L27.923 19ZM29.001 21H32.001L34.067 24.087C34.251 24.364 34.5 24.722 34.5 25H29L29.001 21ZM16.001 29C14.828 29 14.001 29.828 14.001 31C14.001 32.172 14.829 33 16.001 33C17.173 33 18.001 32.172 18.001 31C18.001 29.828 17.171 29 16.001 29ZM31.001 29C29.829 29 29.001 29.828 29.001 31C29.001 32.172 29.829 33 31.001 33C32.173 33 33.001 32.172 33.001 31C33.001 29.828 32.172 29 31.001 29ZM20 31C20 29.828 20.828 29 22 29C23.172 29 24 29.828 24 31C24 32.172 23.172 33 22 33C20.829 33 20 32.172 20 31ZM13.553 21C13.2065 20.7191 12.9638 20.3303 12.8636 19.8957C12.7634 19.461 12.8114 19.0053 13 18.601L14.114 16.211C14.3025 15.8068 14.6208 15.4772 15.0181 15.2746C15.4155 15.0721 15.8691 15.0081 16.307 15.093L20.362 15.879C20.5222 15.9099 20.678 15.9602 20.826 16.029L24.519 17.751C24.6904 17.831 24.8443 17.9439 24.972 18.0834C25.0998 18.2228 25.1988 18.3861 25.2634 18.5638C25.328 18.7416 25.357 18.9303 25.3487 19.1192C25.3404 19.3082 25.295 19.4936 25.215 19.665L22.723 25.205C22.643 25.3764 22.5301 25.5303 22.3906 25.6581C22.2511 25.7858 22.0879 25.8848 21.9101 25.9494C21.7324 26.0141 21.5437 26.043 21.3547 26.0347C21.1658 26.0264 20.9803 25.981 20.809 25.901L17.117 24.179C16.9686 24.11 16.8292 24.023 16.702 23.92L13.553 21Z" fill="#036FC7"/>
<path d="M12.5 27C11.945 27 12 27.445 12 28V29.5C12 30.055 11.945 30.462 12.5 30.462H13V28H25V30.462L25.215 30.423C25.77 30.423 26 30.055 26 29.5V28C26 27.445 25.555 27 25 27H12.5Z" fill="#036FC7"/>
</g>
<defs>
<clipPath id="clip0_1_122">
<rect width="48" height="48" fill="white"/>
</clipPath>
</defs>
</svg>
