<svg width="48" height="48" viewBox="0 0 48 48" fill="none" xmlns="http://www.w3.org/2000/svg">
<g clip-path="url(#clip0_1_353)">
<path d="M1.033 22.2529C-2.602 35.3749 3.686 47.9999 14.705 47.9999C20.802 47.9999 29.5 46.9999 33.102 38.3369C36.573 29.9899 47.5 37.4999 48 20.2529C48 5.99993 27.124 -7.66407 21.332 5.22593C15.54 18.1149 4.667 9.12993 1.032 22.2529H1.033Z" fill="#E8F3FE"/>
<path d="M25.557 21.7241C25.609 21.7311 25.663 21.7341 25.719 21.7341C26.097 21.7341 26.509 21.5651 26.946 21.1371C27.319 20.7731 27.774 19.8721 27.572 18.6071C27.402 17.5571 26.597 15.3731 22.805 13.5591C22.826 13.9551 22.713 14.3271 22.559 14.6651C22.393 15.0281 22.158 15.3991 21.93 15.7571L21.913 15.7841C21.207 16.8941 20.439 18.1241 20.742 19.8981L25.557 21.7241ZM25.557 21.7241C25.92 19.2701 25.552 17.4721 24.852 15.6431C24.81 15.529 24.7454 15.4245 24.6622 15.3358C24.5791 15.2471 24.4789 15.1761 24.3677 15.1268C24.2566 15.0776 24.1366 15.0512 24.0151 15.0491C23.8935 15.0471 23.7727 15.0696 23.66 15.1151L23.653 15.1181C23.4308 15.2148 23.2546 15.3937 23.1614 15.6174C23.0682 15.8411 23.0652 16.0922 23.153 16.3181C23.804 18.0241 24.105 19.5811 23.683 21.8881L25.557 21.7241ZM25.557 21.7241L23.682 21.8881L25.557 21.7241ZM23.682 21.8881C23.4754 21.9542 23.2608 21.9919 23.044 22.0001C22.408 22.0001 21.898 21.7951 21.52 21.4501C21.138 21.1001 20.858 20.5791 20.742 19.8991L23.682 21.8881ZM13.957 27.0001L14.357 26.7011L14.345 26.6851L14.332 26.6701L14.253 26.5811C14.023 26.3211 13.863 26.1391 13.738 25.8791C13.604 25.6011 13.5 25.2001 13.5 24.5001V18.5001C13.5 18.1171 13.624 17.8801 13.774 17.7371C13.929 17.5901 14.158 17.5001 14.434 17.5001C14.712 17.5001 14.94 17.5901 15.095 17.7371C15.245 17.8801 15.37 18.1171 15.37 18.5001V22.6701C15.2612 22.7465 15.1636 22.8377 15.08 22.9411C14.8725 23.2017 14.7296 23.5077 14.663 23.8341C14.506 24.5661 14.679 25.4811 15.496 26.3441L17.591 28.6851L17.594 28.6891C17.6756 28.78 17.7754 28.8527 17.8869 28.9024C17.9985 28.9521 18.1193 28.9776 18.2414 28.9775C18.3636 28.9773 18.4843 28.9513 18.5957 28.9013C18.7071 28.8512 18.8067 28.7782 18.888 28.6871C19.0451 28.5113 19.1319 28.2838 19.1319 28.0481C19.1319 27.8123 19.0451 27.5849 18.888 27.4091L18.886 27.4071L16.596 24.8631L16.593 24.8601C16.4711 24.7216 16.4045 24.543 16.406 24.3586C16.4075 24.1741 16.4769 23.9966 16.601 23.8601H16.603C16.6783 23.782 16.775 23.728 16.881 23.7051C16.978 23.6871 17.202 23.6821 17.545 24.0381L19.832 26.5881L19.837 26.5931L19.842 26.5991C20.804 27.6111 21.587 28.8391 21.587 30.5001V34.5001H17.804V31.3361L17.707 31.2041C16.7448 29.9038 15.7795 28.6058 14.811 27.3101L14.481 26.8671L14.39 26.7441L14.366 26.7121L14.36 26.7041L14.358 26.7021L13.957 27.0001ZM31.408 24.8601L31.406 24.8631L29.114 27.4071L29.112 27.4091C28.9552 27.5848 28.8685 27.8121 28.8685 28.0476C28.8685 28.2831 28.9552 28.5104 29.112 28.6861C29.1931 28.7774 29.2926 28.8506 29.404 28.9009C29.5154 28.9511 29.6361 28.9772 29.7583 28.9775C29.8805 28.9777 30.0014 28.9522 30.113 28.9025C30.2246 28.8528 30.3245 28.7801 30.406 28.6891L30.409 28.6851L32.504 26.3451C33.321 25.4811 33.494 24.5651 33.338 23.8341C33.2713 23.5077 33.1284 23.2017 32.921 22.9411C32.8375 22.8374 32.7399 22.7458 32.631 22.6691V18.5001C32.631 18.1171 32.755 17.8801 32.905 17.7371C33.06 17.5901 33.288 17.5001 33.565 17.5001C33.842 17.5001 34.071 17.5901 34.225 17.7371C34.375 17.8801 34.5 18.1171 34.5 18.5001V24.5001C34.5 25.2001 34.396 25.6001 34.262 25.8791C34.137 26.1391 33.976 26.3211 33.747 26.5811L33.668 26.6701L33.655 26.6851L33.643 26.7011L34.043 27.0011L33.643 26.7011V26.7021L33.641 26.7041L33.634 26.7121L33.61 26.7441L33.519 26.8671L33.189 27.3101C32.2231 28.6076 31.2577 29.9056 30.293 31.2041L30.196 31.3361V34.5001H26.413V30.5001C26.413 28.8391 27.196 27.6101 28.158 26.5991L28.163 26.5931L28.168 26.5881L30.455 24.0381C30.798 23.6811 31.022 23.6881 31.119 23.7051C31.259 23.7301 31.369 23.8261 31.401 23.8611C31.5241 23.9981 31.5928 24.1755 31.5941 24.3598C31.5954 24.544 31.5292 24.7223 31.408 24.8611V24.8601Z" fill="#2C70C1" stroke="#2C70C1"/>
</g>
<defs>
<clipPath id="clip0_1_353">
<rect width="48" height="48" fill="white"/>
</clipPath>
</defs>
</svg>
