<svg width="40" height="40" viewBox="0 0 40 40" fill="none" xmlns="http://www.w3.org/2000/svg">
<path d="M18.12 1.73C24.88 4.883 26.443 8.816 26.776 10.88C27.152 13.236 26.321 15.017 25.493 15.824C24.655 16.644 23.771 17.058 22.865 17.058C22.604 17.058 22.359 17.023 22.132 16.965L17.161 2.48C17.1438 2.35477 17.1593 2.22721 17.2061 2.10978C17.2529 1.99235 17.3294 1.88906 17.428 1.81L18.12 1.73ZM18.12 1.728C18.0083 1.67654 17.8846 1.65697 17.7624 1.67144C17.6403 1.68591 17.5246 1.73387 17.428 1.81L18.12 1.728ZM18.12 1.728L17.908 2.181C24.528 5.271 25.977 9.069 26.282 10.957C26.635 13.165 25.848 14.779 25.144 15.465H25.143C24.371 16.222 23.606 16.557 22.865 16.557C22.646 16.5566 22.4281 16.527 22.217 16.469C22.891 12.284 22.289 9.271 21.109 6.189C21.0546 6.04036 20.971 5.90418 20.8629 5.78855C20.7549 5.67292 20.6247 5.5802 20.48 5.51592C20.3354 5.45164 20.1794 5.4171 20.0211 5.41437C19.8629 5.41163 19.7057 5.44075 19.559 5.5L19.552 5.503C19.2608 5.63009 19.0301 5.86494 18.9082 6.15835C18.7862 6.45176 18.7826 6.78096 18.898 7.077C20.023 10.017 20.532 12.717 19.761 16.741C19.299 16.88 18.841 16.999 18.406 16.999C17.27 16.999 16.339 16.632 15.641 15.994C14.941 15.354 14.445 14.413 14.241 13.219C13.713 10.125 15.065 7.975 16.241 6.127L16.263 6.092C16.647 5.488 17.029 4.886 17.295 4.302C17.568 3.704 17.744 3.072 17.656 2.414C17.6502 2.37492 17.6545 2.33501 17.6685 2.29806C17.6825 2.26112 17.7057 2.22839 17.736 2.203L17.428 1.81L18.12 1.728ZM18.12 1.728L17.909 2.182C17.8809 2.16908 17.8498 2.1639 17.819 2.167C17.789 2.17155 17.7607 2.18397 17.737 2.203L17.428 1.81L18.12 1.728ZM21.559 17.302C21.5153 17.2844 21.472 17.2661 21.429 17.247L21.324 17.202C21.233 17.252 21.138 17.299 21.041 17.343L21.559 17.302ZM21.559 17.302L21.16 16.72C21.146 16.7981 21.1316 16.8761 21.117 16.954L21.056 17.059L21.093 17.08L21.041 17.343L21.559 17.302ZM21.559 17.302C21.2952 18.6113 20.9566 19.9044 20.545 21.175L21.559 17.302ZM21.559 17.302L20.545 21.175L21.559 17.302ZM21.041 17.343C20.7844 18.5861 20.4599 19.8143 20.069 21.022L21.041 17.343ZM21.041 17.343C20.905 17.4051 20.7665 17.4619 20.626 17.513L21.041 17.343ZM20.069 21.022L20.626 17.512L20.069 21.022ZM20.069 21.022C20.037 21.121 19.957 21.166 19.891 21.166C19.8759 21.1656 19.861 21.1626 19.847 21.157L19.838 21.154C19.753 21.124 19.675 21.008 19.718 20.87C20.0744 19.7699 20.3761 18.6529 20.622 17.523L20.069 21.022ZM20.069 21.022L20.622 17.522L20.069 21.022ZM20.626 17.512L20.624 17.522H20.622L20.626 17.512ZM20.626 17.512L20.622 17.522L20.626 17.512ZM20.545 21.175C20.502 21.3155 20.4155 21.4388 20.298 21.5271C20.1805 21.6153 20.038 21.664 19.891 21.666C19.8179 21.6653 19.7454 21.6518 19.677 21.626C19.315 21.503 19.122 21.096 19.241 20.719L20.545 21.175ZM3.26099 25L3.66199 24.702L3.64999 24.685L3.63699 24.67L3.50399 24.52C3.12499 24.092 2.82599 23.753 2.59599 23.275C2.34599 22.755 2.16699 22.034 2.16699 20.834V10.834C2.16699 10.117 2.40199 9.63 2.72699 9.321C3.05699 9.007 3.52499 8.834 4.05799 8.834C4.59099 8.834 5.05799 9.007 5.38899 9.321C5.71399 9.631 5.94899 10.117 5.94899 10.834V17.969C5.91664 17.9861 5.88495 18.0045 5.85399 18.024C5.67811 18.1394 5.52153 18.2818 5.38999 18.446C5.07824 18.8395 4.86376 19.301 4.76399 19.793C4.52699 20.9 4.77899 22.316 6.07199 23.683L9.56799 27.586L9.57099 27.59C9.67555 27.7072 9.80374 27.801 9.94713 27.8651C10.0905 27.9293 10.2459 27.9623 10.4029 27.9621C10.56 27.962 10.7153 27.9285 10.8585 27.864C11.0018 27.7996 11.1297 27.7055 11.234 27.588C11.4406 27.3558 11.5544 27.0557 11.5539 26.7449C11.5533 26.4342 11.4384 26.1345 11.231 25.903L7.41299 21.661L7.40999 21.658C6.87799 21.078 6.87499 20.143 7.42299 19.543L7.42399 19.542C7.49599 19.462 7.73899 19.241 8.07599 19.18C8.36899 19.127 8.85099 19.174 9.48599 19.836L13.301 24.091L13.306 24.096L13.311 24.101C14.946 25.821 16.311 27.946 16.311 30.833V37.5C16.311 37.596 16.311 37.66 16.304 37.718C16.302 37.7427 16.2962 37.767 16.287 37.79C16.2004 37.8235 16.1077 37.8385 16.015 37.834H9.63799C9.59655 37.8346 9.55511 37.8322 9.51399 37.827C9.47599 37.8228 9.43887 37.8127 9.40399 37.797C9.38927 37.7913 9.37669 37.7812 9.36799 37.768C9.36299 37.76 9.34099 37.72 9.34099 37.618V32.336L9.24399 32.204C8.83199 31.644 7.43499 29.768 6.14399 28.033L4.41799 25.716L3.86799 24.978L3.71599 24.773L3.67599 24.72L3.66599 24.706L3.66299 24.703V24.702L3.26099 25ZM34.051 17.969V10.834C34.051 10.117 34.286 9.63 34.611 9.321C34.941 9.007 35.409 8.834 35.942 8.834C36.475 8.834 36.942 9.007 37.273 9.321C37.598 9.631 37.833 10.117 37.833 10.834V20.834C37.833 22.034 37.655 22.754 37.405 23.275C37.175 23.753 36.875 24.092 36.497 24.52L36.364 24.67L36.351 24.685L36.339 24.702L36.739 25L36.339 24.702H36.338L36.335 24.706L36.325 24.72L36.285 24.773L36.133 24.978L35.583 25.716L33.857 28.033C32.8215 29.4214 31.7882 30.8114 30.757 32.203L30.66 32.336V37.617C30.66 37.72 30.638 37.76 30.632 37.768C30.6238 37.7806 30.6119 37.7904 30.598 37.796C30.5628 37.8118 30.5253 37.8219 30.487 37.826C30.4459 37.8312 30.4044 37.8336 30.363 37.833H23.986C23.8933 37.8378 23.8007 37.8232 23.714 37.79C23.7048 37.767 23.6991 37.7427 23.697 37.718C23.6898 37.6456 23.6871 37.5728 23.689 37.5V30.833C23.689 27.946 25.054 25.82 26.689 24.101L26.695 24.096L26.7 24.091L30.515 19.836C31.15 19.174 31.632 19.127 31.925 19.18C32.262 19.24 32.505 19.46 32.581 19.543C33.126 20.143 33.123 21.078 32.593 21.659L32.591 21.661L28.77 25.904H28.768C28.5613 26.1358 28.4471 26.4355 28.4471 26.746C28.4471 27.0565 28.5613 27.3562 28.768 27.588C28.8723 27.7053 29.0002 27.7992 29.1433 27.8636C29.2864 27.928 29.4416 27.9614 29.5985 27.9616C29.7555 27.9618 29.9107 27.9288 30.054 27.8647C30.1973 27.8007 30.3254 27.7071 30.43 27.59L30.433 27.586L33.928 23.682C35.222 22.316 35.473 20.9 35.237 19.793C35.1368 19.3013 34.922 18.8401 34.61 18.447C34.4785 18.2825 34.3219 18.1397 34.146 18.024C34.115 18.0045 34.0833 17.9861 34.051 17.969Z" fill="#2C70C1" stroke="#2C70C1"/>
</svg>
