<svg width="30" height="44" viewBox="0 0 30 44" fill="none" xmlns="http://www.w3.org/2000/svg">
<path d="M14.6666 2.068L1.37865 22L14.6666 41.932L27.9546 22L14.6666 2.068ZM14.6666 0L29.3333 22L14.6666 44L-1.90735e-05 22L14.6666 0Z" fill="#FFC22D"/>
<path d="M10.6773 16.8521L9.36709 18.6121L8.81953 24.1854V18.0547L10.6773 16.8521Z" fill="#FFC22D"/>
<path d="M14.1191 11.4839L12.4177 13.2732L11.8409 15.9866V13.3612L13.1511 12.2466V12.3052L14.1191 11.4839Z" fill="#FFC22D"/>
<path d="M6.40441 24.1855H8.81952L6.60974 24.5962L5.67107 26.4002L6.40441 24.1855Z" fill="#FFC22D"/>
<path d="M12.8088 15.3558V13.7425L14.6666 12.3052V14.1092L12.8088 15.3558Z" fill="#FFC22D"/>
<path d="M13.5618 26.2533H12.9849V24.4346L13.5618 24.376V26.2533Z" fill="#FFC22D"/>
<path d="M13.5618 22.308L12.9849 22.44V20.6214L13.5618 20.416V22.308Z" fill="#FFC22D"/>
<path d="M13.5618 18.6122L12.9849 18.8762V17.0429L13.5618 16.7202V18.6122Z" fill="#FFC22D"/>
<path d="M11.88 26.2531H11.4107V24.6104L11.88 24.5518V26.2531Z" fill="#FFC22D"/>
<path d="M11.88 22.7038L11.4107 22.8064V21.1638L11.88 21.0024V22.7038Z" fill="#FFC22D"/>
<path d="M11.88 19.3747L11.4107 19.58V17.9373L11.88 17.6733V19.3747Z" fill="#FFC22D"/>
<path d="M10.4329 26.2534H10.0418V24.7574L10.4329 24.7134V26.2534Z" fill="#FFC22D"/>
<path d="M10.4329 23.0415L10.0418 23.1295V21.6335L10.4329 21.5015V23.0415Z" fill="#FFC22D"/>
<path d="M10.4329 20.02L10.0418 20.196V18.7L10.4329 18.48V20.02Z" fill="#FFC22D"/>
<path d="M14.1191 11.4841L14.6667 10.9561L13.1511 12.2468V9.97344L14.6667 7.77344L16.1822 9.97344V12.2468L17.4925 13.3614V16.0014L20.5236 18.0401V24.1708H22.9289L23.6622 26.4001H20.5333H14.6667V14.2414V14.1094L16.5245 15.3561V13.7428L14.6667 12.3054V11.0294L14.1191 11.4841ZM14.1876 10.3401L13.728 10.7654V11.6454L14.1876 11.2494V10.3401ZM16.3485 17.0428L15.7618 16.7201V18.6121L16.3485 18.8761V17.0428ZM16.3485 20.6214L15.7618 20.4161V22.3081L16.3485 22.4401V20.6214ZM16.3485 24.4348L15.7618 24.3761V26.2534H16.3485V24.4348ZM18.9005 26.2534H19.2916V24.7574L18.9005 24.7134V26.2534ZM18.9005 23.0414L19.2916 23.1294V21.6334L18.9005 21.5014V23.0414ZM18.9005 20.0201L19.2916 20.1961V18.7001L18.9005 18.4801V20.0201ZM17.4533 26.2534H17.9325V24.6108L17.4533 24.5521V26.2534ZM17.4533 22.7041L17.9325 22.8214V21.1788L17.4533 21.0174V22.7041ZM17.4533 19.3748L17.9325 19.5948V17.9521L17.4533 17.6881V19.3748ZM15.0676 11.2641L15.5271 11.6601V10.7801L15.0676 10.3548V11.2641Z" fill="#FFC22D"/>
<path d="M14.1191 11.484L13.1511 12.3054V12.2467L14.6666 10.9707L14.1191 11.484Z" fill="#FFC22D"/>
<path d="M25.4711 26.3267L3.91107 26.4L14.6666 42.5333L25.4711 26.3267Z" fill="#FFC22D"/>
</svg>
