<svg width="48" height="48" viewBox="0 0 48 48" fill="none" xmlns="http://www.w3.org/2000/svg">
<g clip-path="url(#clip0_1_346)">
<path d="M33.295 48C44.314 48 50.602 35.375 46.967 22.253C43.333 9.13096 33.966 17.326 26.667 5.22596C18.654 -8.06404 1.387 6.33896 0 22.253C0.53 30.835 7.93 48 33.295 48Z" fill="#E8F3FE"/>
<path d="M20.374 12.9L19.496 14.03L19.494 14.033C19.3864 14.1714 19.2413 14.2758 19.076 14.334L17.74 14.812L20.374 12.9ZM20.374 12.9C20.714 12.46 21.246 12.204 21.802 12.195C21.9901 12.1925 22.1776 12.2185 22.358 12.272H22.36L23.716 12.662C23.886 12.717 24.079 12.717 24.248 12.662L25.605 12.272H25.606C26.342 12.055 27.136 12.312 27.59 12.899L28.468 14.03L28.471 14.033C28.575 14.163 28.714 14.276 28.888 14.334L30.224 14.812C30.5728 14.9351 30.8766 15.1601 31.0961 15.4578C31.3156 15.7556 31.4406 16.1124 31.455 16.482L31.499 17.892C31.499 18.081 31.555 18.252 31.669 18.397L32.477 19.566L32.479 19.568C32.913 20.174 32.913 21.018 32.479 21.623L32.477 21.626L31.665 22.8L31.664 22.802C31.5604 22.9477 31.5029 23.1212 31.499 23.3L31.455 24.71C31.4407 25.0795 31.3158 25.4362 31.0965 25.7339C30.8772 26.0317 30.5736 26.2567 30.225 26.38L20.374 12.9ZM20.374 12.9L30.225 26.38L20.374 12.9ZM16.51 16.48V16.481L16.466 17.891C16.4621 18.0698 16.4046 18.2432 16.301 18.389L16.3 18.391L15.49 19.561C15.2942 19.8749 15.1922 20.2381 15.196 20.608C15.1997 20.9779 15.309 21.3391 15.511 21.649L16.318 22.815C16.4307 22.9589 16.4907 23.1372 16.488 23.32L16.532 24.73V24.731C16.552 25.474 17.046 26.144 17.762 26.401L18.462 26.639L18.652 26.703L18.582 26.891L16.059 33.718C16.0292 33.8014 16.0248 33.8917 16.0466 33.9776C16.0683 34.0634 16.1151 34.1408 16.181 34.2C16.321 34.323 16.523 34.354 16.695 34.277C17.3284 33.9825 18.0527 33.9508 18.7095 34.1888C19.3663 34.4267 19.9022 34.9151 20.2 35.547C20.275 35.709 20.44 35.804 20.615 35.804H20.628C20.827 35.784 20.988 35.672 21.045 35.502L21.046 35.497L23.57 28.627L23.596 28.553L23.666 28.518L23.71 28.497L23.722 28.491L23.735 28.486C23.9093 28.4302 24.0967 28.4302 24.271 28.486L25.628 28.876C26.365 29.093 27.158 28.836 27.613 28.248L28.403 27.226L28.62 26.946L28.741 27.278L30.76 32.779L30.863 33.059L30.565 33.041C30.063 33.0067 29.5595 33.077 29.0861 33.2474C28.6127 33.4178 28.1799 33.6846 27.815 34.031L27.601 34.237L27.497 33.958L26.357 30.893C26.26 30.639 25.997 30.527 25.777 30.614C25.53 30.713 25.408 30.979 25.492 31.186L25.494 31.192L27.052 35.453C27.11 35.613 27.279 35.741 27.47 35.76H27.483C27.5698 35.7598 27.6548 35.7354 27.7285 35.6894C27.8022 35.6435 27.8616 35.5779 27.9 35.5C28.1985 34.869 28.7345 34.3818 29.391 34.1446C30.0475 33.9074 30.7711 33.9395 31.404 34.234L16.51 16.48ZM16.509 16.48L31.403 34.234L16.509 16.48ZM16.509 16.48C16.5233 16.1105 16.6481 15.7538 16.8674 15.456C17.0867 15.1583 17.3903 14.9332 17.739 14.81L16.509 16.48ZM31.403 34.234C31.487 34.2713 31.58 34.2837 31.6709 34.2699C31.7618 34.2561 31.8468 34.2166 31.916 34.156C31.9817 34.0969 32.0283 34.0196 32.05 33.934C32.0718 33.8484 32.0676 33.7582 32.038 33.675L29.536 26.825L29.468 26.639L29.656 26.574L30.226 26.379L31.403 34.234ZM31.403 34.234L30.225 26.379L31.403 34.234ZM19.692 27.377L19.477 27.103L19.356 27.43L17.338 32.865L17.24 33.128H17.784C18.203 33.128 18.618 33.191 19.01 33.333C19.497 33.523 19.931 33.771 20.28 34.116L20.495 34.329L20.6 34.044L22.377 29.218L22.474 28.955H22.194C22.13 28.955 22.067 28.961 22.014 28.966H22.01C21.9619 28.9719 21.9134 28.9752 21.865 28.976C21.5826 28.9752 21.3041 28.9112 21.0497 28.7887C20.7953 28.6662 20.5716 28.4882 20.395 28.268L19.692 27.377ZM28.138 20.606C28.138 18.344 26.272 16.497 23.993 16.497C21.715 16.497 19.849 18.344 19.849 20.606C19.849 22.868 21.715 24.715 23.993 24.715C26.272 24.715 28.138 22.868 28.138 20.605V20.606ZM23.53 19.52C23.53 19.26 23.726 19.063 23.993 19.063C24.26 19.063 24.456 19.26 24.456 19.52V21.694C24.456 21.954 24.26 22.151 23.993 22.151C23.9321 22.153 23.8715 22.1427 23.8148 22.1205C23.7581 22.0983 23.7065 22.0648 23.6632 22.0221C23.6198 21.9793 23.5857 21.9282 23.5628 21.8718C23.5399 21.8153 23.5287 21.7549 23.53 21.694V19.52Z" fill="#2C70C1" stroke="#2C70C1" stroke-width="0.391"/>
</g>
<defs>
<clipPath id="clip0_1_346">
<rect width="48" height="48" fill="white"/>
</clipPath>
</defs>
</svg>
