<svg width="48" height="48" viewBox="0 0 48 48" fill="none" xmlns="http://www.w3.org/2000/svg">
<g clip-path="url(#clip0_1_339)">
<path d="M46.967 25.82C50.602 12.7 44.314 0.0749512 33.295 0.0749512C27.198 0.0749512 18.5 1.07495 14.898 9.73795C11.427 18.084 0.5 10.5739 0 27.82C0 42.073 20.876 55.736 26.668 42.847C32.46 29.958 43.333 38.9409 46.968 25.82H46.967Z" fill="#E8F3FE"/>
<path fill-rule="evenodd" clip-rule="evenodd" d="M33 24C33 26.3869 32.0518 28.6761 30.364 30.364C28.6761 32.0518 26.3869 33 24 33C21.6131 33 19.3239 32.0518 17.636 30.364C15.9482 28.6761 15 26.3869 15 24C15 21.6131 15.9482 19.3239 17.636 17.636C19.3239 15.9482 21.6131 15 24 15C26.3869 15 28.6761 15.9482 30.364 17.636C32.0518 19.3239 33 21.6131 33 24ZM35 24C35 30.075 30.075 35 24 35C17.925 35 13 30.075 13 24C13 17.925 17.925 13 24 13C30.075 13 35 17.925 35 24ZM22.5 29L18 24.5L19.5 23L22.5 26L28.5 20L30 21.5L22.5 29Z" fill="#2C70C1"/>
</g>
<defs>
<clipPath id="clip0_1_339">
<rect width="48" height="48" fill="white"/>
</clipPath>
</defs>
</svg>
