<svg width="48" height="48" viewBox="0 0 48 48" fill="none" xmlns="http://www.w3.org/2000/svg">
<g clip-path="url(#clip0_1_331)">
<path d="M46.967 22.2529C50.602 35.3749 44.314 47.9999 33.295 47.9999C27.198 47.9999 18.5 46.9999 14.898 38.3369C11.427 29.9899 0.5 37.4999 0 20.2529C0 5.99993 20.876 -7.66407 26.668 5.22593C32.46 18.1149 43.333 9.13093 46.968 22.2529H46.967Z" fill="#E8F3FE"/>
<path d="M21.338 12C21.338 12 19.655 11.96 18.706 13.016C17.758 14.071 17.903 15.825 17.903 15.825C17.903 15.825 19.586 15.868 20.535 14.811C21.484 13.754 21.338 12.001 21.338 12.001V12ZM26.66 12C26.66 12 26.515 13.755 27.463 14.811C28.411 15.867 30.093 15.825 30.093 15.825C30.093 15.825 30.24 14.072 29.292 13.015C28.343 11.96 26.66 12 26.66 12ZM15.463 13.193C15.463 13.193 14.349 14.513 14.512 15.952C14.675 17.39 16.052 18.402 16.052 18.402L16.059 18.392C16.349 18.644 17.419 19.487 18.597 19.365C19.976 19.222 20.97 17.8 20.97 17.8C20.97 17.8 19.728 16.612 18.35 16.755C17.564 16.837 16.912 17.33 16.49 17.742C16.78 17.221 17.094 16.454 17.003 15.642C16.84 14.203 15.463 13.194 15.463 13.194V13.193ZM32.536 13.193C32.536 13.193 31.159 14.205 30.996 15.643C30.903 16.456 31.216 17.221 31.509 17.742C31.086 17.329 30.434 16.837 29.649 16.755C28.271 16.612 27.028 17.802 27.028 17.802C27.028 17.802 28.023 19.224 29.401 19.367C30.578 19.489 31.649 18.643 31.939 18.393L31.946 18.403C31.946 18.403 33.323 17.39 33.486 15.952C33.65 14.512 32.536 13.193 32.536 13.193ZM12.768 18.614C12.768 18.614 12.086 20.224 12.654 21.544C13.222 22.866 14.826 23.398 14.826 23.398L14.833 23.38C15.193 23.495 16.491 23.843 17.533 23.257C18.751 22.57 19.145 20.859 19.145 20.859C19.145 20.859 17.562 20.261 16.342 20.948C15.752 21.28 15.359 21.851 15.107 22.353C15.197 21.797 15.215 21.103 14.942 20.469C14.375 19.148 12.768 18.614 12.768 18.614ZM35.23 18.614C35.23 18.614 33.624 19.148 33.056 20.469C32.784 21.101 32.802 21.797 32.891 22.353C32.639 21.851 32.246 21.28 31.656 20.948C30.436 20.261 28.853 20.859 28.853 20.859C28.853 20.859 29.247 22.571 30.466 23.259C31.507 23.844 32.805 23.497 33.166 23.382L33.172 23.4C33.172 23.4 34.777 22.866 35.344 21.545C35.913 20.223 35.23 18.614 35.23 18.614ZM18.536 23.954C18.536 23.954 16.892 24.325 16.205 25.584C15.874 26.19 15.829 26.89 15.868 27.454C15.665 26.932 15.33 26.331 14.781 25.942C13.633 25.13 12 25.558 12 25.558C12 25.558 12.226 27.302 13.374 28.113C14.521 28.926 16.156 28.499 16.156 28.499L16.153 28.483C16.513 28.383 17.796 27.961 18.383 26.883C19.069 25.625 18.536 23.955 18.536 23.955V23.954ZM29.462 23.954C29.462 23.954 28.93 25.625 29.616 26.884C30.204 27.961 31.487 28.384 31.847 28.484L31.844 28.499C31.844 28.499 33.479 28.927 34.626 28.115C35.774 27.303 36 25.558 36 25.558C36 25.558 34.364 25.13 33.217 25.942C32.669 26.332 32.334 26.932 32.132 27.455C32.172 26.89 32.126 26.19 31.795 25.583C31.108 24.325 29.462 23.955 29.462 23.955V23.954ZM19.858 27.384C19.858 27.384 18.321 28.102 17.898 29.48C17.658 30.266 17.83 31.086 18.023 31.655C17.682 31.168 17.137 30.562 16.387 30.327C15.06 29.911 13.624 30.83 13.624 30.83C13.624 30.83 14.338 32.423 15.665 32.84C16.82 33.201 18 32.584 18.302 32.41C18.893 33.053 19.6 33.485 20.356 33.778C20.097 33.988 19.868 34.239 19.704 34.564C19.6827 34.5984 19.6637 34.6341 19.647 34.671L19.638 34.687C19.5635 34.8592 19.5409 35.0494 19.5729 35.2343C19.6049 35.4192 19.69 35.5907 19.818 35.728C19.9579 35.8771 20.1464 35.9715 20.3497 35.9942C20.5529 36.017 20.7576 35.9665 20.927 35.852C21.0718 35.7539 21.1856 35.6165 21.255 35.456C21.34 35.259 21.575 35.066 22.169 34.89C22.64 34.75 23.295 34.655 23.999 34.557C24.703 34.655 25.358 34.75 25.829 34.89C26.422 35.066 26.658 35.26 26.743 35.456H26.745C26.815 35.618 26.929 35.756 27.072 35.852C27.2137 35.948 27.3808 35.9995 27.552 36C27.6696 35.9995 27.786 35.9751 27.8939 35.9284C28.0019 35.8816 28.0992 35.8134 28.18 35.728C28.3095 35.5916 28.3957 35.4199 28.4275 35.2346C28.4594 35.0493 28.4355 34.8587 28.359 34.687H28.36L28.352 34.671C28.3346 34.632 28.3145 34.5942 28.292 34.558C28.1334 34.2546 27.9117 33.9887 27.642 33.778C28.398 33.485 29.105 33.053 29.696 32.409C29.996 32.583 31.176 33.203 32.333 32.841C33.66 32.425 34.376 30.831 34.376 30.831C34.376 30.831 32.94 29.913 31.613 30.329C30.863 30.564 30.316 31.17 29.975 31.657C30.168 31.087 30.341 30.265 30.1 29.481C29.677 28.101 28.14 27.384 28.14 27.384C28.14 27.384 27.29 28.904 27.713 30.282C27.833 30.67 28.041 31 28.277 31.282L28.275 31.283C27.37 32.107 25.875 32.418 24.299 32.638L23.999 32.68L23.699 32.638C22.123 32.418 20.627 32.105 19.721 31.281C19.957 30.999 20.168 30.669 20.287 30.281C20.71 28.902 19.858 27.384 19.858 27.384Z" fill="#2C70C1"/>
</g>
<defs>
<clipPath id="clip0_1_331">
<rect width="48" height="48" fill="white"/>
</clipPath>
</defs>
</svg>
